
<svg width="40" height="40" xmlns="http://www.w3.org/2000/svg">
  <rect width="100%" height="100%" fill="#34495E" rx="5" ry="5"/>
  
  <g transform="translate(8,8)">
    <svg xmlns="http://www.w3.org/2000/svg" height="24px" viewBox="0 -960 960 960" width="24px" fill="#e8eaed"><path d="m536-84-56-56 142-142-340-340-142 142-56-56 56-58-56-56 84-84-56-58 56-56 58 56 84-84 56 56 58-56 56 56-142 142 340 340 142-142 56 56-56 58 56 56-84 84 56 58-56 56-58-56-84 84-56-56-58 56Z"/></svg>

  </g>
</svg>
